<svg id="Layer_1" data-name="Layer 1" xmlns="http://www.w3.org/2000/svg" viewBox="0 0 294.02 299.9"><defs><style>.cls-1{fill:#030303;}.cls-2{fill:#0c0b0b;}.cls-3{fill:none;}.cls-4{fill:#0f0e0e;}.cls-5{fill:#d9d9d9;}.cls-6{fill:#222;}.cls-7{fill:#070707;}.cls-8{fill:#dadada;}.cls-9{fill:#2b2b2b;}.cls-10{fill:#161414;}.cls-11{fill:#fefefe;}.cls-12{fill:#010101;}.cls-13{fill:#050505;}.cls-14{fill:#0d0d0d;}.cls-15{fill:#2a2a2a;}.cls-16{fill:#1e1e1e;}.cls-17{fill:#020202;}.cls-18{fill:#f2f2f2;}.cls-19{fill:#141212;}.cls-20{fill:#252525;}.cls-21{fill:#2c2c2c;}.cls-22{fill:#1a1a1a;}.cls-23{fill:#212121;}.cls-24{fill:#424242;}.cls-25{fill:#1f1f1f;}.cls-26{fill:#2d2d2d;}.cls-27{fill:#111;}.cls-28{fill:#171717;}.cls-29{fill:#0a0909;}.cls-30{fill:#202020;}.cls-31{fill:#272727;}.cls-32{fill:#0a0a0a;}.cls-33{fill:#292929;}.cls-34{fill:#060606;}.cls-35{fill:#949494;}.cls-36{fill:#b6b6b6;}.cls-37{fill:#696969;}.cls-38{fill:#e5e5e5;}.cls-39{fill:#110f0f;}.cls-40{font-size:72px;fill:#fff;font-family:DrSugiyama-Regular, Dr Sugiyama;letter-spacing:0.05em;}.cls-41{letter-spacing:0em;}.cls-42{font-size:14px;fill:#f9f9f9;font-family:BodoniSvtyTwoSCITCTT-Book, "Bodoni 72 Smallcaps";}</style></defs><title>Mon logo</title><path class="cls-1" d="M223.71,394.88a186.61,186.61,0,0,0,36.59,1.71c31-1.61,58.93-11.7,83.55-30.72,1.37-1.06,2.78-2.07,4.18-3.1.83-.35,1.23.08,1.48.81-7.05,6.82-15.22,12.1-23.57,17.13a119,119,0,0,1-32,13.56,15.87,15.87,0,0,1-3.54.77c-1.53-.07-2.65,1.06-4,1.41-1.81.47-3.8.07-5.49,1.14-1.53-.15-2.9.63-4.38.77s-3.15.39-4.7.74c-2.7,0-5.37.52-8.08.29-11.16.1-22.3-.13-33.32-2.1-2.56-.46-5.08-1.08-7.62-1.63C222.68,394.91,222.9,394.55,223.71,394.88Z" transform="translate(-104.24 -100.27)"/><path class="cls-2" d="M349.51,363.58l-1.48-.81c2.07-1.76,3.34-4.71,6.71-4.54.48,1.66-.64,2-1.84,2.56A19.71,19.71,0,0,0,349.51,363.58Z" transform="translate(-104.24 -100.27)"/><path class="cls-3" d="M263.72,399.39a32.46,32.46,0,0,1,8.51-.73c.17.15.23.3.17.45s-.11.23-.16.23c-2.49.36-4.95,1-7.5.79Z" transform="translate(-104.24 -100.27)"/><path d="M139.51,152c-.87,2.49-2.92,4-4.67,5.8-.76-1.3-.05-2.12.93-2.84l1.5-2.23C137.84,151.93,138.42,151.15,139.51,152Z" transform="translate(-104.24 -100.27)"/><path class="cls-4" d="M218.26,103.3a25,25,0,0,1,6.79-1.45c.28.23.73.28.81.74a22.45,22.45,0,0,1-7.61,1.37c-.25-.15-.34-.29-.25-.44S218.17,103.3,218.26,103.3Z" transform="translate(-104.24 -100.27)"/><path class="cls-5" d="M363.61,349.22" transform="translate(-104.24 -100.27)"/><path class="cls-5" d="M359.36,353.23" transform="translate(-104.24 -100.27)"/><path class="cls-6" d="M149.39,142.33c-1.2,1-1.6,3.28-3.93,2.65C146.24,143.31,145.8,139.82,149.39,142.33Z" transform="translate(-104.24 -100.27)"/><path class="cls-7" d="M231,101.1c.25.16.34.32.26.49s-.16.25-.24.25c-1.64.85-3.44.56-5.17.75l-.81-.74" transform="translate(-104.24 -100.27)"/><path class="cls-8" d="M141.72,148.33c.26,1.72-1.29,2-2.2,2.84v.8l-2.24.73" transform="translate(-104.24 -100.27)"/><path d="M236.32,100.38c1.39,1.08,3.13,0,4.57.74a14.1,14.1,0,0,1-5.48.48c-.67-.54-1.74.17-2.31-.72A4.23,4.23,0,0,1,236.32,100.38Z" transform="translate(-104.24 -100.27)"/><path class="cls-3" d="M272.24,399.34a2.22,2.22,0,0,1,0-.68c1.42-.82,3-.69,4.52-.66.26.14.34.28.26.41s-.18.2-.27.2A10.82,10.82,0,0,1,272.24,399.34Z" transform="translate(-104.24 -100.27)"/><path class="cls-9" d="M139.52,151.17l2.2-2.84a1.12,1.12,0,0,1,1.33-.87C143,149.73,141.85,151,139.52,151.17Z" transform="translate(-104.24 -100.27)"/><path class="cls-3" d="M276.74,398.61c0-.2,0-.41,0-.61,1.36-.94,2.92-.81,4.45-.77a.46.46,0,0,1,.76,0C280.42,398.46,278.52,398.3,276.74,398.61Z" transform="translate(-104.24 -100.27)"/><path d="M214.52,104.81c-1.42,1.13-3.24.79-5.45,1.89,1.79-2.3,3.84-2,5.44-2.64.26.16.34.33.26.49S214.6,104.81,214.52,104.81Z" transform="translate(-104.24 -100.27)"/><path class="cls-10" d="M285.5,107.13c-1.23-.11-2.51,0-3.58-.83.71-.39,1.72.2,2.28-.68l3,.72C287.2,107.8,286.25,107.25,285.5,107.13Z" transform="translate(-104.24 -100.27)"/><path class="cls-3" d="M282,397.24h-.76a6.49,6.49,0,0,1,5.17-.78A7.34,7.34,0,0,1,282,397.24Z" transform="translate(-104.24 -100.27)"/><path class="cls-11" d="M134.75,157.85l-1.29-1.42c.5-.91,1-1.83,2.31-1.5-.1,1-1.24,1.69-.93,2.84Z" transform="translate(-104.24 -100.27)"/><path d="M214.52,104.81v-.75l3.75-.76a2.91,2.91,0,0,0,0,.66A6.39,6.39,0,0,1,214.52,104.81Z" transform="translate(-104.24 -100.27)"/><path class="cls-3" d="M233.1,100.88l2.31.72-4.38.24c0-.25,0-.49,0-.74Z" transform="translate(-104.24 -100.27)"/><path class="cls-3" d="M290.4,395a5.2,5.2,0,0,1,3.54-.77C292.88,395.05,291.87,396.1,290.4,395Z" transform="translate(-104.24 -100.27)"/><path d="M201.47,108.24a2.09,2.09,0,0,1,2.31-.51C203.11,108.81,202.34,108.63,201.47,108.24Z" transform="translate(-104.24 -100.27)"/><path class="cls-12" d="M357.07,354.52c.25-.75.75-.86,1.41-.55l-.83.69A.34.34,0,0,1,357.07,354.52Z" transform="translate(-104.24 -100.27)"/><path d="M357.07,354.52a1.27,1.27,0,0,1,.58.14c-.24.25-.49.49-.74.74a.35.35,0,0,1-.59-.13Z" transform="translate(-104.24 -100.27)"/><path d="M356.32,355.27a1.31,1.31,0,0,1,.59.13l-.73.74a.38.38,0,0,1-.64-.13Z" transform="translate(-104.24 -100.27)"/><path d="M355.54,356a1.59,1.59,0,0,1,.64.13l-.72.72-.32.19-.22-.3C354.82,356.25,355.13,356.09,355.54,356Z" transform="translate(-104.24 -100.27)"/><path d="M144.7,146l.52.54H144Z" transform="translate(-104.24 -100.27)"/><path d="M354.92,356.75a1.62,1.62,0,0,1,.54.11l-.54.62Z" transform="translate(-104.24 -100.27)"/><path d="M382.45,304.44c-.27.78-.61,1.53-.92,2.29a20.41,20.41,0,0,1-2.16,4.52c-.79,1.07-.9,2.59-2.19,3.34-8,14.21-17.11,27.51-29.11,38.68-25.16,23.43-54.62,37.37-89.11,39.49-36.3,2.22-68.14-9.57-96.31-32.05-12.53-10-22.58-22.19-31.43-35.45-1.77-.91-2.46-2.7-3.42-4.26-.57-1.17-1.12-2.34-1.75-3.48s-1.42-2.12-2-3.29a5.52,5.52,0,0,1-.34-.88,12.45,12.45,0,0,0-1.24-3c-.35-.68-.68-1.38-1-2.08a10.36,10.36,0,0,0-1.56-2.84,4.05,4.05,0,0,1-.52-.84,19.49,19.49,0,0,0-1.72-4.76,27.36,27.36,0,0,1-2.32-6.67A22.84,22.84,0,0,0,114,288a23.43,23.43,0,0,1-.85-3.19c-.13-1.46-.67-2.84-.84-4.29-.13-1.25-.61-2.44-.73-3.7-.41-1.89-.64-3.81-1-5.71a7.36,7.36,0,0,1-.25-1c-.32-1.76,0-3.58-.59-5.31a6,6,0,0,1-.27-1.11,44.39,44.39,0,0,1-.2-4.75c0-1.89,0-3.77,0-5.65s0-3.86,0-5.79a22.39,22.39,0,0,1,0-2.59c.2-3.43-.29-6.9.68-10.27a28.05,28.05,0,0,1,.4-4.29c.63-2.07.61-4.25,1.21-6.32.13-1.5.71-2.91,1-4.39.77-1.45-.13-3.21.81-4.64l-.09,0c.9-1.59.67-3.55,1.65-5.11,1.16-2.16,2.86-4.07,3.08-6.67a12,12,0,0,1,.64-3.35c.26-.77.59-1.52.83-2.3a13.31,13.31,0,0,1,1-2.27c.9-1.47,1.2-3.2,2-4.71,2.15-3.23,2.51-7.52,5.91-10,6.76-11.1,14.24-21.63,23.53-30.81A143.66,143.66,0,0,1,227,110.06c42.49-8.24,79.84,3.58,113.12,30.1,14.93,11.9,26.4,26.74,35.7,43.32,1.13.59,1.37,1.79,1.94,2.76s.94,1.73,1.38,2.61a15.66,15.66,0,0,1,1.5,3.73c.72,1.41,1.26,2.89,1.93,4.32a2.28,2.28,0,0,1,.25.78,41.79,41.79,0,0,0-2.08-5.07,24.61,24.61,0,0,0-1.72-4.19c-.47-.88-.95-1.75-1.41-2.63a9.3,9.3,0,0,1-1-3.28c-1.85-5-5.22-9.21-7.67-13.9-.29-.85.11-1,.85-.88,11.52,14.67,18.35,31.49,22.27,49.54a147.64,147.64,0,0,1-.76,64.94,16,16,0,0,1-.63,1.76c-1,.23-1.11-.54-1.31-1.2a1.6,1.6,0,0,1,.26-1c-.46.13-.27.53-.31.81a2.83,2.83,0,0,0,.24,1.4,1.76,1.76,0,0,1-.08,1c-1,1.34-1.05,3.18-2.37,4.34" transform="translate(-104.24 -100.27)"/><path d="M384.65,297.47c.34,1.42-.28,2.63-.84,3.84" transform="translate(-104.24 -100.27)"/><path class="cls-13" d="M128.26,173.75c-10.6,15.56-17.13,32.78-21,51.1-.26,1.22-.58,2.42-.87,3.63-.71.07-1.11-.11-.71-.91.86-10.93,4.54-21.09,8.45-31.19.27-.7.5-1.4.75-2.1.49-1.43.29-3.2,2-4.06,9.19-19,21.43-35.61,37.72-49.12,1.14-.95,2.38-1.78,3.57-2.66.78-.27,1,.1.87.8-5.67,5.55-12.44,10-16.6,17-1,1.44-2.8,2.18-3.36,4a40,40,0,0,0-2.75,3.34,21.3,21.3,0,0,0-1.79,2.34,50.15,50.15,0,0,0-3.52,4.93C130.18,171.93,129.57,173.18,128.26,173.75Z" transform="translate(-104.24 -100.27)"/><path class="cls-14" d="M381.87,317.75c-3.69,5.73-7,11.71-11.25,17.07a27.2,27.2,0,0,1-4.55,4.85,1.37,1.37,0,0,1-.52-.83,2,2,0,0,1,.21-1c.94-.88,1-2.5,2.47-2.93,13.23-16.55,21.34-35.5,26.2-56,.66-2.78,1.15-5.61,1.72-8.42,1.68.37.79,1.49.69,2.37-.9,11.14-4.54,21.51-8.74,31.74-.65,1.59-1.69,3.06-1.76,4.86-.32,1.26-.91,2.44-1.13,3.73a4.88,4.88,0,0,1-2,2.17A4,4,0,0,0,381.87,317.75Z" transform="translate(-104.24 -100.27)"/><path class="cls-15" d="M396.84,272.92c-.3-.77.06-1.73-.69-2.37q.36-3,.71-6c1.78.25.73,1.5.83,2.34C397.47,268.93,397.82,271,396.84,272.92Z" transform="translate(-104.24 -100.27)"/><path class="cls-16" d="M159,139.24l-.87-.8a11.62,11.62,0,0,1,3.88-2.93c.77-.27,1,.05.75.75Z" transform="translate(-104.24 -100.27)"/><path class="cls-3" d="M379.76,311.78a4.15,4.15,0,0,1-1.63,3.5l-.95-.69" transform="translate(-104.24 -100.27)"/><path class="cls-17" d="M389.23,288.93c-.2-1.35-.82-2.71,0-4.06v-.95c-.47-.85-.52-1.48.74-1.47.24.51.47,1,.7,1.52A11.35,11.35,0,0,1,389.23,288.93Z" transform="translate(-104.24 -100.27)"/><ellipse class="cls-3" cx="293.63" cy="143.99" rx="0.26" ry="5.28"/><path class="cls-18" d="M137.26,164" transform="translate(-104.24 -100.27)"/><path class="cls-18" d="M138.75,160.25a.49.49,0,0,1,.79,0" transform="translate(-104.24 -100.27)"/><path class="cls-19" d="M285.5,107.13c.62-.17,1.35-.08,1.72-.79l3.75,1-.21,1Z" transform="translate(-104.24 -100.27)"/><path class="cls-20" d="M387.71,289.25l1.58-.05a9.78,9.78,0,0,1-1.49,4.63c-.47-.07-.54-.5-.73-.81C387.28,291.76,387.5,290.5,387.71,289.25Z" transform="translate(-104.24 -100.27)"/><path class="cls-19" d="M292.39,107.78l3.84,1.15-.25,1-3.89-1Z" transform="translate(-104.24 -100.27)"/><path class="cls-17" d="M397.69,266.92c-.37-.75,0-1.75-.83-2.34A2.11,2.11,0,0,1,398,262,7.42,7.42,0,0,1,397.69,266.92Z" transform="translate(-104.24 -100.27)"/><path class="cls-21" d="M162.76,136.26l-.75-.75a6.85,6.85,0,0,1,3-2.24c.73-.29.88,0,.68.67Z" transform="translate(-104.24 -100.27)"/><path class="cls-22" d="M369.79,167.73l-.85.88c-.72-1.05-1.45-2.09-2.18-3.13-.25-.77.06-1,.77-.74A7.33,7.33,0,0,1,369.79,167.73Z" transform="translate(-104.24 -100.27)"/><path class="cls-23" d="M367.53,164.74l-.77.74a6.88,6.88,0,0,1-2.25-3c-.26-.77.05-.95.75-.73A7.14,7.14,0,0,1,367.53,164.74Z" transform="translate(-104.24 -100.27)"/><path class="cls-3" d="M384.65,297.47l1.63.36a9.28,9.28,0,0,0-1.28,2.65,1.18,1.18,0,0,1-1.21.7l-.28-.09-.24.16" transform="translate(-104.24 -100.27)"/><path d="M387.07,293l.73.81c-.09.94,0,2-1.28,2.27C385.87,294.91,386.73,294,387.07,293Z" transform="translate(-104.24 -100.27)"/><path class="cls-24" d="M383.79,301.18l.86-.84c.46.1.5.55.71.87-.45,1-.9,2.05-1.34,3.07" transform="translate(-104.24 -100.27)"/><path class="cls-19" d="M302.87,112c-2.12-.38-3.38-.3-4.26-1.78C300.07,110,301.13,110.55,302.87,112Z" transform="translate(-104.24 -100.27)"/><path class="cls-25" d="M365.26,161.75l-.75.73a7.77,7.77,0,0,1-2.37-3.37A4.2,4.2,0,0,1,365.26,161.75Z" transform="translate(-104.24 -100.27)"/><path class="cls-17" d="M385.36,301.21l-.71-.87c-.18-1.3.81-1.86,1.63-2.51C386,299,385.67,300.08,385.36,301.21Z" transform="translate(-104.24 -100.27)"/><path class="cls-3" d="M384.73,313.17c-.33,1-.67,2-1,3l-.52-.75A2.61,2.61,0,0,1,384.73,313.17Z" transform="translate(-104.24 -100.27)"/><path d="M382.5,305.75l.73,0a7.85,7.85,0,0,1-1.5,3.4l-.06-1.94C381.38,306.43,381.82,306,382.5,305.75Z" transform="translate(-104.24 -100.27)"/><path class="cls-26" d="M165.73,133.94l-.68-.67c.57-.68,1.54-1.79,2.07-1.1C167.93,133.21,166.53,133.57,165.73,133.94Z" transform="translate(-104.24 -100.27)"/><path class="cls-1" d="M124.51,313.27a3.9,3.9,0,0,1,0,.59,17.73,17.73,0,0,0,1.79,3.66c.49,1.08,1.06,2.13,1.54,3.21.84,1.83,2.23,3.4,2.6,5.45l6.2,10.13c.22.82-.13,1.11-.92,1-13.05-15.65-20.73-33.82-25-53.55a142.89,142.89,0,0,1,.47-64.2c1.15,0,1.19.83,1.23,1.66a13.64,13.64,0,0,0-.27,3c-1.25,1.77-.25,4-1.08,5.82l0,4.55c-2,3.32-1,6.86-.77,10.34l0,2.37c-1,2.13-.16,4.37-.39,6.55v5.35c.21,1.78-.45,3.64.41,5.37l0-.07c1,1.93-.28,4.15.79,6.07l0-.08c.9,1.81-.16,4,1.07,5.72a8,8,0,0,0,.78,3.86,8.75,8.75,0,0,0,1.16,4.69l.77,3a10.52,10.52,0,0,0,1.5,5.32l2.24,6.45c0,2,1.16,3.67,1.58,5.54l.85.09a6.32,6.32,0,0,0,.92,3.57,24,24,0,0,0,1,2.18A8.68,8.68,0,0,0,124.51,313.27Z" transform="translate(-104.24 -100.27)"/><path class="cls-27" d="M361.54,345.6a78.54,78.54,0,0,1-10.4,10.47c-.81.21-1.1-.11-.92-.9l10.44-10.46C361.45,344.52,361.75,344.81,361.54,345.6Z" transform="translate(-104.24 -100.27)"/><path class="cls-28" d="M361.54,345.6l-.88-.89,3.09-4.42c.62-.7.88-1.86,2.18-1.69l.14,1.07C365.41,342.29,363.46,343.94,361.54,345.6Z" transform="translate(-104.24 -100.27)"/><path class="cls-22" d="M350.22,355.17l.92.9a31.11,31.11,0,0,1-6.13,5.2.87.87,0,0,1-.74-.76Z" transform="translate(-104.24 -100.27)"/><path class="cls-29" d="M111.8,221.08l-.68-1.55c.57-1.58-.43-3.89,2.1-4.58.44,1.53,1.44,3.06,0,4.59C112.6,219.92,113.15,221.38,111.8,221.08Z" transform="translate(-104.24 -100.27)"/><path class="cls-29" d="M114.78,209.82c.66,2.09.85,4-1.65,5.11C112.38,212,112.85,210.58,114.78,209.82Z" transform="translate(-104.24 -100.27)"/><path class="cls-16" d="M135.68,337.28l.92-1a12.44,12.44,0,0,1,2.92,3.9c.17.74-.08,1.06-.86.83A10.13,10.13,0,0,1,135.68,337.28Z" transform="translate(-104.24 -100.27)"/><path class="cls-30" d="M344.27,360.51l.74.76c-1.3,1.47-2.7,2.79-5.11,2.58Z" transform="translate(-104.24 -100.27)"/><path class="cls-3" d="M151.5,354.55a24.44,24.44,0,0,1-5.36-5.24.55.55,0,0,1,1-.09l4.39,4.53c.23.18.31.36.23.53S151.58,354.55,151.5,354.55Z" transform="translate(-104.24 -100.27)"/><path class="cls-9" d="M138.66,341l.86-.83a13.16,13.16,0,0,1,3.27,4.36C140.22,344.17,139.67,342.34,138.66,341Z" transform="translate(-104.24 -100.27)"/><path class="cls-31" d="M223.71,394.88l-.93.78a14.64,14.64,0,0,1-5.35-1.37,1.28,1.28,0,0,1,.79-.63C220.05,394,222,393.93,223.71,394.88Z" transform="translate(-104.24 -100.27)"/><path class="cls-32" d="M105.68,227.57l.71.91-.75,5.93c-1.44.09-.91-.81-.77-1.52C105.16,231.12,104.68,229.23,105.68,227.57Z" transform="translate(-104.24 -100.27)"/><path class="cls-7" d="M104.86,253.35v6.48h-.38v-6.49Z" transform="translate(-104.24 -100.27)"/><path class="cls-7" d="M104.87,232.89l.77,1.52a4.05,4.05,0,0,1-.86,3.56A5.81,5.81,0,0,1,104.87,232.89Z" transform="translate(-104.24 -100.27)"/><path class="cls-3" d="M205.76,390.77a12.33,12.33,0,0,1,6.53,2A11.73,11.73,0,0,1,205.76,390.77Z" transform="translate(-104.24 -100.27)"/><path d="M119.63,194.85l1.17.73-.88,2.17a.67.67,0,0,1-1-.3,4.06,4.06,0,0,1,.36-2.38A2.56,2.56,0,0,1,119.63,194.85Z" transform="translate(-104.24 -100.27)"/><path class="cls-3" d="M365.89,337.17a5.87,5.87,0,0,1,.08.72,3.35,3.35,0,0,1,0,.71c-.94.28-1,1.65-2.18,1.69" transform="translate(-104.24 -100.27)"/><path class="cls-14" d="M218.22,393.66l-.79.63a6,6,0,0,1-3.63-1.17C215.54,392.58,216.81,393.63,218.22,393.66Z" transform="translate(-104.24 -100.27)"/><path class="cls-14" d="M147.11,349.22l-1,.09-2.38-2.25C145.91,346.82,146.3,348.32,147.11,349.22Z" transform="translate(-104.24 -100.27)"/><path class="cls-3" d="M151.5,354.55v-.8l2.39,2A1.8,1.8,0,0,1,151.5,354.55Z" transform="translate(-104.24 -100.27)"/><path class="cls-33" d="M117.7,200.91l-.47,1.4-.8,1.48c-.26.32-.51.3-.76,0C116.45,202.89,115.23,200.59,117.7,200.91Z" transform="translate(-104.24 -100.27)"/><path class="cls-34" d="M115.67,203.78h.76a6.39,6.39,0,0,1-1.24,3.61C114.18,206,115.54,204.93,115.67,203.78Z" transform="translate(-104.24 -100.27)"/><path d="M119.28,195.07l-.25,2.6a1,1,0,0,1-.53.83l-.73,0A6.32,6.32,0,0,1,119.28,195.07Z" transform="translate(-104.24 -100.27)"/><path class="cls-3" d="M110.21,244.89c-.82-3.53-1.94-7.08.77-10.34C109.77,237.93,110.43,241.44,110.21,244.89Z" transform="translate(-104.24 -100.27)"/><path class="cls-3" d="M386.93,208.23a14.22,14.22,0,0,1,1.39,5.72,9.13,9.13,0,0,1-2.09-5.69C386.45,207.91,386.69,207.88,386.93,208.23Z" transform="translate(-104.24 -100.27)"/><path class="cls-11" d="M378.66,188.92c-.38-.79,0-1,.72-.89" transform="translate(-104.24 -100.27)"/><path class="cls-11" d="M380.32,192.5" transform="translate(-104.24 -100.27)"/><path class="cls-31" d="M392.41,259.24v-5.79l.32,0v5.65Z" transform="translate(-104.24 -100.27)"/><path class="cls-3" d="M114.76,287.71a11.42,11.42,0,0,1,1.5,5.32" transform="translate(-104.24 -100.27)"/><path class="cls-3" d="M118.5,299.48c1,1.71,1.91,3.45,1.58,5.54" transform="translate(-104.24 -100.27)"/><path class="cls-3" d="M111,230c.16-2-.45-4.13.77-6,.21-.34.43-.32.66,0" transform="translate(-104.24 -100.27)"/><path class="cls-3" d="M109.54,253.27c.19-2-1.23-4.2.71-6,0,2,0,4-.07,6C110,253.6,109.75,253.58,109.54,253.27Z" transform="translate(-104.24 -100.27)"/><path class="cls-3" d="M111,270.45c1.42,1.8.32,4.19,1.45,6.05-.21.33-.43.35-.65,0" transform="translate(-104.24 -100.27)"/><path class="cls-35" d="M390,277" transform="translate(-104.24 -100.27)"/><path class="cls-35" d="M391.06,270.86" transform="translate(-104.24 -100.27)"/><path class="cls-3" d="M109.54,253.27a4.73,4.73,0,0,1,.65,0q0,3,0,6c-.2.31-.4.33-.6,0Z" transform="translate(-104.24 -100.27)"/><path class="cls-3" d="M110.23,264.46c1.49,1.87.5,4.05.79,6.07" transform="translate(-104.24 -100.27)"/><path class="cls-3" d="M384.41,203.27l-1.34-3.71c2.17.91,1.74,2.32,2.32,3.27Z" transform="translate(-104.24 -100.27)"/><path class="cls-3" d="M113.23,219.54l-.8,4.44-.33,0-.33,0" transform="translate(-104.24 -100.27)"/><path class="cls-3" d="M112.54,280.26c.21-.35.42-.36.62,0l.83,4.44" transform="translate(-104.24 -100.27)"/><path class="cls-36" d="M390,282.45c-.24.49-.49,1-.74,1.47" transform="translate(-104.24 -100.27)"/><path class="cls-36" d="M389.29,279.73" transform="translate(-104.24 -100.27)"/><path class="cls-3" d="M386.93,208.23l-.35,0h-.35l-1.33-3.51C386.73,205.44,386.56,207,386.93,208.23Z" transform="translate(-104.24 -100.27)"/><path class="cls-11" d="M126.49,317" transform="translate(-104.24 -100.27)"/><path class="cls-3" d="M125.9,318c-.9-1.23-1.92-2.43-1.43-4.14" transform="translate(-104.24 -100.27)"/><path class="cls-37" d="M391.93,265.16a6.83,6.83,0,0,1-.05,4.46" transform="translate(-104.24 -100.27)"/><path class="cls-3" d="M109.58,259.28a4,4,0,0,1,.6,0l.09,5.26C108.85,262.94,109.71,261,109.58,259.28Z" transform="translate(-104.24 -100.27)"/><path class="cls-38" d="M379.38,188l-.72.89" transform="translate(-104.24 -100.27)"/><path class="cls-38" d="M378.13,185.47" transform="translate(-104.24 -100.27)"/><path class="cls-3" d="M122.39,311l-.94-2.15.7-.77" transform="translate(-104.24 -100.27)"/><path class="cls-11" d="M382.5,305.75l-.83,1.49-.65-.7" transform="translate(-104.24 -100.27)"/><path class="cls-3" d="M391.07,230.46c1.49,1.51,1.2,2.45.8,4.06C391.58,233,391.41,232.16,391.07,230.46Z" transform="translate(-104.24 -100.27)"/><path class="cls-3" d="M389.07,218.37c1.21.81,1.07,1.85.77,3.08C388.83,220.52,389.19,219.37,389.07,218.37Z" transform="translate(-104.24 -100.27)"/><path class="cls-3" d="M113.16,280.28l-.31,0h-.31a4.74,4.74,0,0,1-.76-3.76h.65" transform="translate(-104.24 -100.27)"/><path class="cls-39" d="M119.92,197.75l-.77,2.21-.65-1.46" transform="translate(-104.24 -100.27)"/><path class="cls-14" d="M392.63,238.12a2.45,2.45,0,0,1,0,2.58A2.19,2.19,0,0,1,392.63,238.12Z" transform="translate(-104.24 -100.27)"/><text class="cls-40" transform="translate(88.15 149.23)">T<tspan class="cls-41" x="41.54" y="0">R.</tspan></text><text class="cls-42" transform="translate(76.34 208.92)">Software developer</text></svg>